<?xml version="1.0" standalone="no"?>
<!DOCTYPE svg PUBLIC "-//W3C//DTD SVG 20010904//EN"
 "http://www.w3.org/TR/2001/REC-SVG-20010904/DTD/svg10.dtd">
<svg version="1.0" xmlns="http://www.w3.org/2000/svg"
 width="200.000000pt" height="200.000000pt" viewBox="0 0 200.000000 200.000000"
 preserveAspectRatio="xMidYMid meet">

<g transform="translate(0.000000,200.000000) scale(0.100000,-0.100000)"
fill="#ffffff" stroke="none">
<path d="M412 1788 c-17 -17 -17 -1559 0 -1576 9 -9 129 -12 477 -12 l464 0
-39 35 -39 34 -402 1 -403 0 0 730 0 730 365 0 365 0 0 -153 c0 -106 4 -157
12 -165 8 -8 59 -12 165 -12 l153 0 0 -265 0 -265 35 0 35 0 0 298 0 297 -168
168 -167 167 -421 0 c-313 0 -423 -3 -432 -12z m978 -203 l115 -115 -118 0
-117 0 0 115 c0 63 1 115 3 115 1 0 54 -52 117 -115z"/>
<path d="M609 1184 c-9 -11 -10 -20 -2 -32 9 -15 47 -17 393 -17 346 0 384 2
393 17 8 12 7 21 -2 32 -12 14 -59 16 -391 16 -332 0 -379 -2 -391 -16z"/>
<path d="M609 984 c-9 -11 -10 -20 -2 -32 9 -15 38 -17 258 -17 217 0 249 2
258 16 6 9 7 24 4 33 -6 14 -34 16 -255 16 -216 0 -251 -2 -263 -16z"/>
<path d="M609 784 c-9 -11 -10 -20 -2 -32 9 -15 43 -17 309 -20 164 -1 309 0
320 3 27 6 38 33 23 51 -9 11 -71 14 -324 14 -273 0 -314 -2 -326 -16z"/>
<path d="M1490 791 c-216 -71 -292 -322 -148 -486 22 -25 64 -58 92 -73 70
-36 188 -38 257 -4 280 138 200 553 -110 568 -36 2 -77 0 -91 -5z m163 -74
c83 -35 147 -130 147 -217 0 -87 -64 -182 -147 -217 -51 -21 -131 -16 -190 11
-63 30 -107 87 -124 160 -22 99 33 210 126 256 48 23 141 26 188 7z"/>
<path d="M1546 654 c-11 -10 -16 -34 -16 -69 l0 -54 -62 -3 c-60 -3 -63 -4
-63 -28 0 -24 3 -25 63 -28 l62 -3 0 -54 c0 -35 5 -59 16 -69 33 -34 54 -8 54
66 l0 57 63 3 c59 3 62 4 62 28 0 24 -3 25 -62 28 l-63 3 0 57 c0 74 -21 100
-54 66z"/>
<path d="M609 584 c-9 -11 -10 -20 -2 -32 9 -15 33 -17 193 -17 160 0 184 2
193 17 8 12 7 21 -2 32 -20 24 -362 24 -382 0z"/>
</g>
</svg>
