<?xml version="1.0" standalone="no"?>
<svg version="1.0" xmlns="http://www.w3.org/2000/svg"
 width="40.000000pt" height="40.000000pt" viewBox="0 0 260.000000 420.000000"
 preserveAspectRatio="xMidYMid meet">
<g transform="translate(0.000000,420.000000) scale(0.100000,-0.100000)"
fill="#ffffff" stroke="none">
<path d="M1113 4189 c-366 -53 -693 -247 -894 -532 -150 -212 -228 -470 -215
-712 10 -194 47 -326 148 -521 37 -72 299 -623 582 -1223 284 -600 526 -1112
540 -1138 l23 -47 21 39 c11 22 103 216 205 430 101 215 332 701 512 1080 180
380 348 731 373 780 127 250 151 313 176 472 28 176 15 339 -40 515 -120 382
-450 695 -859 813 -175 50 -403 68 -572 44z m322 -684 c176 -46 321 -186 375
-364 25 -79 27 -215 4 -292 -56 -188 -210 -339 -389 -379 -66 -15 -187 -15
-250 0 -347 84 -513 485 -330 795 65 110 191 206 316 239 72 19 201 20 274 1z"/>
</g>
</svg>
