<?xml version="1.0" standalone="no"?>
<!DOCTYPE svg PUBLIC "-//W3C//DTD SVG 20010904//EN"
 "http://www.w3.org/TR/2001/REC-SVG-20010904/DTD/svg10.dtd">
<svg version="1.0" xmlns="http://www.w3.org/2000/svg"
 width="225.000000pt" height="225.000000pt" viewBox="0 0 225.000000 225.000000"
 preserveAspectRatio="xMidYMid meet">

<g transform="translate(0.000000,225.000000) scale(0.100000,-0.100000)"
fill="#ffffff" stroke="none">
<path d="M166 2228 c-14 -20 -16 -141 -16 -1103 0 -962 2 -1083 16 -1103 l15
-22 853 0 c814 0 854 1 869 18 14 15 17 42 17 159 l0 140 78 28 c42 15 81 30
85 35 5 4 -44 119 -109 254 l-117 248 46 46 c178 183 204 466 62 678 l-45 67
0 273 c0 234 -2 275 -16 288 -14 14 -106 16 -869 16 l-854 0 -15 -22z m1654
-268 c0 -110 -2 -200 -4 -200 -2 0 -27 11 -54 25 -84 42 -166 58 -267 52 -108
-6 -170 -24 -249 -72 l-58 -35 -314 0 -314 0 0 -45 0 -45 265 0 c146 0 265 -2
265 -5 0 -3 -13 -26 -29 -52 -50 -82 -74 -167 -75 -268 -1 -49 2 -102 7 -117
l7 -28 -220 0 -220 0 0 -45 0 -45 234 0 234 0 28 -47 c15 -26 47 -69 71 -95
l44 -46 -65 -139 -66 -138 -240 -3 -240 -2 0 -45 0 -45 215 0 c118 0 215 -2
215 -5 0 -3 -13 -35 -30 -71 -20 -45 -26 -66 -17 -69 141 -50 362 -125 367
-125 3 0 33 117 65 260 l59 260 78 0 c72 0 78 -2 83 -22 3 -13 29 -128 59
-256 29 -128 55 -235 58 -237 3 -3 24 2 48 10 23 8 46 15 51 15 5 0 9 -43 9
-95 l0 -95 -785 0 -785 0 0 1035 0 1035 785 0 785 0 0 -200z m-208 -221 c179
-38 322 -192 351 -378 28 -187 -73 -375 -248 -462 -68 -33 -73 -34 -190 -34
-114 0 -123 1 -188 32 -91 43 -177 129 -220 220 -30 64 -32 74 -32 183 0 109
2 119 32 183 92 194 294 298 495 256z m-274 -944 c3 -3 -88 -417 -93 -423 -3
-3 -177 56 -183 63 -2 2 22 57 53 122 32 65 75 155 97 200 l39 83 42 -21 c23
-12 43 -23 45 -24z m535 -161 c48 -100 87 -186 87 -192 0 -11 -170 -76 -178
-68 -6 7 -91 375 -92 398 0 18 80 61 91 49 3 -3 45 -88 92 -187z"/>
<path d="M1461 1571 l-54 -109 -125 -18 -125 -18 92 -89 92 -89 -20 -116 c-12
-63 -19 -117 -17 -119 2 -3 52 18 112 46 l107 51 110 -56 c102 -53 109 -55
104 -33 -3 13 -13 68 -22 121 l-17 97 86 93 87 93 -121 19 -121 19 -55 108
c-30 60 -55 109 -57 109 -1 0 -27 -49 -56 -109z m139 -201 c14 0 35 -3 48 -6
23 -7 23 -7 -13 -44 -37 -37 -37 -39 -27 -86 6 -27 9 -50 8 -52 -2 -2 -24 7
-48 19 l-44 21 -42 -21 c-23 -11 -44 -21 -47 -21 -4 0 -4 24 0 53 6 50 5 53
-30 87 -31 30 -33 35 -18 42 10 3 33 7 50 7 29 1 36 7 59 53 l27 53 25 -53
c21 -42 31 -52 52 -52z"/>
</g>
</svg>
