<?xml version="1.0" standalone="no"?>
<svg version="1.0" xmlns="http://www.w3.org/2000/svg"
 width="512.000000pt" height="512.000000pt" viewBox="0 0 512.000000 512.000000"
 preserveAspectRatio="xMidYMid meet">

<g transform="translate(0.000000,512.000000) scale(0.100000,-0.100000)"
fill="#fff" stroke="none">
<path d="M1237 5109 c-33 -19 -47 -72 -47 -173 l0 -95 -37 -10 c-21 -6 -281
-80 -578 -165 -552 -158 -558 -160 -571 -213 -4 -14 209 -667 590 -1810 l596
-1788 0 -383 c0 -407 3 -437 48 -461 15 -8 579 -11 1922 -11 l1902 0 29 29 29
29 0 2164 0 2163 -368 367 -367 368 -1565 0 c-1095 -1 -1571 -4 -1583 -11z
m1778 -182 c-103 -59 -765 -508 -779 -529 -23 -33 -20 -75 9 -103 22 -23 31
-25 125 -25 l100 0 0 -260 0 -260 -100 0 c-94 0 -103 -2 -125 -25 -32 -31 -32
-75 -1 -112 l24 -28 800 0 800 0 26 24 c33 31 35 85 4 118 -20 21 -30 23 -125
23 l-103 0 0 260 0 260 99 0 c84 0 102 3 125 21 20 16 26 29 26 58 0 20 -6 44
-12 53 -7 9 -193 136 -413 282 l-400 266 588 0 587 0 0 -315 0 -316 25 -24 24
-25 316 0 315 0 0 -2050 0 -2050 -1790 0 -1790 0 0 2390 0 2390 843 0 842 0
-40 -23z m1620 -297 l190 -190 -193 0 -192 0 0 190 c0 105 1 190 3 190 1 0 88
-85 192 -190z m-1320 -30 l240 -160 -479 0 c-264 0 -476 3 -473 7 10 9 461
312 467 312 3 1 113 -71 245 -159z m-2126 -1567 l-1 -1628 -494 1480 c-272
814 -493 1484 -491 1489 3 8 944 284 975 285 9 1 12 -330 11 -1626z m2309 980
l-3 -258 -82 -3 -83 -3 0 131 c0 220 -4 224 -282 218 -170 -3 -177 -4 -202
-27 -25 -23 -26 -28 -28 -170 l-3 -146 -82 -3 -83 -3 0 261 0 260 425 0 425 0
-2 -257z m-343 -173 l0 -85 -82 -3 -83 -3 0 91 0 91 83 -3 82 -3 0 -85z"/>
<path d="M2602 3403 c-22 -9 -42 -61 -42 -113 l0 -50 -485 0 -486 0 -24 -25
-25 -24 0 -419 0 -419 25 -23 c21 -20 38 -24 113 -28 l87 -4 78 -76 c42 -42
77 -81 77 -87 0 -6 -27 -37 -59 -69 -65 -64 -77 -90 -60 -133 13 -36 1023
-1048 1066 -1068 47 -23 75 -7 190 108 l102 101 23 -21 c22 -21 42 -27 83 -24
12 1 206 187 485 466 l465 465 238 0 c261 0 299 6 317 55 6 16 10 197 10 461
0 480 0 482 -61 503 -18 6 -63 11 -101 11 l-68 0 -252 210 -252 210 -715 -1
c-394 0 -722 -3 -729 -6z m1598 -344 c296 -249 273 -233 344 -239 l61 -5 3
-342 2 -343 -197 0 -198 0 -470 470 -470 470 -273 0 -272 0 0 85 0 85 628 0
627 0 215 -181z m-1640 -43 c0 -44 5 -61 24 -83 l24 -28 299 -3 299 -3 427
-427 427 -427 -110 -110 -110 -110 -195 195 c-182 181 -197 194 -231 194 -45
0 -84 -40 -84 -86 0 -27 26 -57 195 -227 l195 -197 -68 -67 -67 -67 -195 195
c-167 166 -201 195 -226 195 -60 0 -103 -55 -83 -107 5 -16 94 -112 197 -215
l187 -188 -110 -110 -110 -110 -535 535 c-508 507 -538 535 -572 535 -21 0
-46 -9 -62 -21 l-27 -21 -109 106 -109 106 -60 0 -61 0 0 300 0 300 425 0 425
0 0 -54z m-357 -1118 l-67 -68 -68 67 -68 67 67 68 67 68 68 -67 68 -67 -67
-68z m257 -123 l65 -65 -68 -68 -67 -67 -67 67 -68 68 65 65 c35 36 67 65 70
65 3 0 35 -29 70 -65z m257 -257 l63 -62 -67 -68 -67 -68 -68 67 -68 67 62 63
c34 35 67 63 72 63 6 0 39 -28 73 -62z m313 -322 c0 -6 -28 -39 -62 -73 l-62
-63 -68 67 -68 67 67 68 67 68 63 -62 c35 -34 63 -67 63 -72z"/>
<path d="M3782 997 c-25 -26 -29 -82 -8 -109 7 -10 25 -22 40 -28 39 -14 862
-14 905 1 61 21 76 95 29 139 -21 19 -33 20 -483 20 l-462 0 -21 -23z"/>
<path d="M3786 659 c-19 -15 -26 -30 -26 -54 0 -97 -8 -95 507 -95 333 0 444
3 463 13 37 19 54 61 41 99 -21 59 -6 57 -502 58 -447 0 -457 0 -483 -21z"/>
</g>
</svg>
