<?xml version="1.0" standalone="no"?>
<!DOCTYPE svg PUBLIC "-//W3C//DTD SVG 20010904//EN"
 "http://www.w3.org/TR/2001/REC-SVG-20010904/DTD/svg10.dtd">
<svg version="1.0" xmlns="http://www.w3.org/2000/svg"
 width="225.000000pt" height="225.000000pt" viewBox="0 0 225.000000 225.000000"
 preserveAspectRatio="xMidYMid meet">

<g transform="translate(0.000000,225.000000) scale(0.100000,-0.100000)"
fill="#ffffff" stroke="none">
<path d="M710 2240 c-9 -6 -15 -25 -15 -54 l0 -46 -117 0 c-136 0 -148 -6
-148 -76 l0 -44 -160 0 c-147 0 -160 -1 -170 -19 -14 -27 -14 -1875 0 -1902
10 -18 28 -19 654 -19 l644 0 63 -30 c322 -149 689 80 690 430 0 94 -14 157
-55 235 -62 121 -192 219 -327 247 l-59 12 0 504 c0 328 -4 510 -10 523 -10
18 -23 19 -170 19 l-160 0 0 44 c0 70 -12 76 -148 76 l-117 0 0 46 c0 29 -6
48 -15 54 -8 6 -94 10 -190 10 -96 0 -182 -4 -190 -10z m320 -140 l0 -80 -130
0 -130 0 0 80 0 80 130 0 130 0 0 -80z m-335 -86 c0 -29 6 -48 15 -54 8 -6 94
-10 190 -10 96 0 182 4 190 10 9 6 15 25 15 54 l0 46 98 0 98 0 -3 -72 -3 -73
-395 0 -395 0 -3 73 -3 72 98 0 98 0 0 -46z m-265 -107 c0 -24 5 -48 12 -55
17 -17 899 -17 916 0 7 7 12 31 12 55 l0 43 130 0 130 0 0 -488 0 -488 -62
-13 c-257 -53 -428 -312 -375 -567 17 -78 51 -153 91 -202 15 -16 26 -33 26
-36 0 -3 -256 -6 -570 -6 l-570 0 0 900 0 900 130 0 130 0 0 -43z m1363 -1027
c125 -39 230 -144 268 -272 104 -341 -242 -643 -566 -494 -77 35 -158 115
-198 195 -30 62 -32 72 -32 176 0 103 2 114 32 177 90 190 295 280 496 218z"/>
<path d="M330 1635 c-6 -8 -10 -22 -8 -32 3 -17 22 -18 278 -18 256 0 275 1
278 18 9 45 -5 47 -278 47 -213 0 -260 -3 -270 -15z"/>
<path d="M323 1404 c-3 -9 -2 -24 4 -33 9 -14 66 -16 573 -16 507 0 564 2 573
16 6 9 7 24 4 33 -6 15 -58 16 -577 16 -519 0 -571 -1 -577 -16z"/>
<path d="M330 1185 c-6 -8 -10 -22 -8 -32 3 -17 23 -18 295 -21 287 -2 292 -2
298 18 15 48 2 50 -295 50 -230 0 -280 -2 -290 -15z"/>
<path d="M1006 1184 c-22 -21 -4 -54 29 -54 28 0 43 33 25 55 -16 19 -35 19
-54 -1z"/>
<path d="M1154 1186 c-3 -8 -4 -23 -2 -33 3 -16 17 -18 163 -18 146 0 160 2
163 18 8 41 -13 47 -170 47 -120 0 -150 -3 -154 -14z"/>
<path d="M323 954 c-3 -9 -2 -24 4 -33 9 -14 59 -16 464 -19 250 -1 464 0 477
3 18 5 23 11 20 33 l-3 27 -478 3 c-436 2 -478 1 -484 -14z"/>
<path d="M330 736 c-6 -8 -10 -23 -8 -33 3 -17 26 -18 388 -18 l385 0 0 30 0
30 -376 3 c-320 2 -378 0 -389 -12z"/>
<path d="M323 504 c-3 -9 -2 -24 4 -33 9 -14 42 -16 273 -16 231 0 264 2 273
16 6 9 7 24 4 33 -6 14 -36 16 -277 16 -241 0 -271 -2 -277 -16z"/>
<path d="M1642 738 c-8 -8 -12 -48 -12 -115 l0 -102 -107 -3 c-105 -3 -108 -4
-111 -27 -2 -13 2 -28 10 -32 7 -5 57 -9 111 -9 l97 0 0 -94 c0 -111 4 -126
36 -126 36 0 46 31 42 131 l-3 89 101 0 c107 0 130 9 122 47 -3 16 -18 19
-112 23 l-109 5 2 85 c1 47 -3 98 -8 113 -11 29 -38 36 -59 15z"/>
</g>
</svg>
