<?xml version="1.0" standalone="no"?>
<!DOCTYPE svg PUBLIC "-//W3C//DTD SVG 20010904//EN"
 "http://www.w3.org/TR/2001/REC-SVG-20010904/DTD/svg10.dtd">
<svg version="1.0" xmlns="http://www.w3.org/2000/svg"
 width="225.000000pt" height="225.000000pt" viewBox="0 0 225.000000 225.000000"
 preserveAspectRatio="xMidYMid meet">

<g transform="translate(0.000000,225.000000) scale(0.100000,-0.100000)"
fill="#ffffff" stroke="none">
<path d="M326 2234 c-14 -14 -16 -128 -16 -1109 0 -981 2 -1095 16 -1109 14
-14 83 -16 617 -16 l601 0 198 198 198 198 0 911 c0 815 -2 913 -16 927 -14
14 -100 16 -799 16 -699 0 -785 -2 -799 -16z m1524 -924 l0 -850 -169 0 c-141
0 -172 -3 -185 -16 -13 -13 -16 -44 -16 -185 l0 -169 -540 0 -540 0 0 1035 0
1035 725 0 725 0 0 -850z m-70 -943 c0 -1 -47 -49 -105 -107 l-105 -105 0 108
0 107 105 0 c58 0 105 -1 105 -3z"/>
<path d="M592 1968 c-18 -18 -14 -56 7 -68 11 -5 53 -10 94 -10 59 0 77 4 90
18 21 23 21 36 1 56 -19 20 -173 23 -192 4z"/>
<path d="M1220 1961 c-14 -27 -13 -37 6 -55 13 -14 48 -16 224 -16 176 0 211
2 224 16 19 18 20 28 6 55 -10 18 -23 19 -230 19 -207 0 -220 -1 -230 -19z"/>
<path d="M958 1779 c-21 -12 -24 -49 -6 -67 9 -9 104 -12 365 -12 l353 0 12
25 c9 21 8 28 -7 45 -17 19 -30 20 -359 20 -213 0 -348 -4 -358 -11z"/>
<path d="M572 1418 c-16 -16 -15 -43 2 -57 9 -8 164 -10 556 -9 504 3 544 4
554 21 8 12 8 22 0 35 -10 16 -50 17 -556 20 -415 2 -547 -1 -556 -10z"/>
<path d="M572 1268 c-18 -18 -14 -56 7 -68 13 -6 202 -10 546 -10 344 0 533 4
546 10 21 12 25 50 7 68 -17 17 -1089 17 -1106 0z"/>
<path d="M572 1098 c-16 -16 -15 -43 2 -57 9 -8 164 -10 556 -9 504 3 544 4
554 21 8 12 8 22 0 35 -10 16 -50 17 -556 20 -415 2 -547 -1 -556 -10z"/>
<path d="M572 948 c-16 -16 -15 -43 2 -57 9 -8 140 -10 466 -9 419 3 454 4
464 21 8 12 8 22 0 35 -10 16 -45 17 -465 20 -346 2 -458 -1 -467 -10z"/>
<path d="M1591 946 c-8 -9 -11 -26 -7 -41 6 -24 11 -26 48 -23 48 3 70 27 52
56 -15 23 -77 28 -93 8z"/>
<path d="M680 608 c-24 -13 -58 -40 -74 -61 -29 -36 -31 -45 -31 -116 0 -65 4
-83 24 -113 49 -71 131 -101 226 -84 75 14 145 107 145 193 -1 153 -155 249
-290 181z m149 -82 c33 -18 51 -54 51 -105 0 -49 -30 -87 -80 -102 -32 -10
-44 -9 -77 7 -77 38 -92 129 -31 186 34 32 90 38 137 14z"/>
<path d="M1092 463 c-22 -9 -34 -41 -22 -63 10 -19 21 -20 161 -20 l149 0 12
26 c11 23 10 29 -11 45 -20 16 -40 19 -150 18 -69 0 -132 -3 -139 -6z"/>
</g>
</svg>
