<?xml version="1.0" standalone="no"?>
<svg version="1.0" xmlns="http://www.w3.org/2000/svg"
 width="512.000000pt" height="512.000000pt" viewBox="0 0 512.000000 512.000000"
 preserveAspectRatio="xMidYMid meet">

<g transform="translate(0.000000,512.000000) scale(0.100000,-0.100000)"
fill="#fff" stroke="none">
<path d="M1543 5110 c-51 -21 -58 -49 -61 -257 l-4 -193 -204 0 c-226 0 -243
-4 -263 -62 -6 -17 -11 -102 -11 -189 l0 -159 -195 0 c-210 0 -248 -7 -279
-51 -15 -22 -16 -194 -16 -2071 0 -1566 3 -2053 12 -2073 26 -58 -63 -55 1554
-55 l1486 0 34 34 34 34 0 176 0 176 216 0 216 0 29 29 29 29 0 196 0 196 184
0 c212 0 237 3 271 38 l25 25 0 1244 0 1245 -29 29 c-53 52 -135 33 -162 -38
-5 -14 -9 -485 -9 -1184 l0 -1160 -137 3 -138 3 -5 1768 -5 1769 -28 24 -28
24 -1185 0 -1184 0 0 130 0 130 1355 0 1354 0 3 -346 3 -346 34 -30 c29 -26
39 -30 75 -25 27 4 49 15 63 32 l23 26 0 414 0 414 -24 28 -24 28 -1494 2
c-852 1 -1502 -2 -1515 -7z m2377 -2570 l0 -1920 -145 0 -145 0 0 1443 c0 793
-3 1452 -6 1465 -8 29 -736 689 -781 708 -27 12 -179 14 -838 14 l-805 0 0
105 0 105 1360 0 1360 0 0 -1920z m-1210 1205 l0 -305 29 -32 29 -33 331 -3
331 -3 0 -1584 0 -1585 -1360 0 -1360 0 0 1924 0 1925 1000 1 1000 0 0 -305z
m460 -74 l105 -100 -182 -1 -183 0 0 171 0 171 78 -71 c42 -38 124 -115 182
-170z"/>
<path d="M1003 3770 c-32 -13 -57 -57 -56 -98 1 -27 9 -43 32 -64 l31 -28 378
0 c419 0 410 -1 439 67 12 31 12 38 -4 71 -10 20 -29 42 -43 49 -30 15 -741
17 -777 3z"/>
<path d="M2121 3766 c-13 -7 -30 -24 -37 -37 -56 -101 76 -201 157 -120 80 81
-20 212 -120 157z"/>
<path d="M979 3352 c-24 -22 -31 -36 -31 -65 0 -45 24 -84 58 -97 39 -15 1176
-13 1209 2 59 27 73 112 26 159 l-29 29 -601 0 -601 0 -31 -28z"/>
<path d="M1657 2984 c-204 -37 -409 -163 -533 -327 -174 -232 -223 -529 -132
-804 89 -271 312 -484 588 -563 138 -40 371 -37 489 5 l36 13 240 -238 c217
-214 246 -239 298 -259 146 -53 298 5 366 140 26 52 31 74 31 133 0 120 -19
149 -261 392 l-210 210 36 78 c57 122 77 213 78 351 2 194 -46 355 -153 509
-194 280 -535 421 -873 360z m291 -199 c99 -20 240 -89 314 -155 31 -28 79
-84 107 -125 156 -234 156 -513 1 -756 -33 -51 -37 -86 -16 -127 8 -15 121
-133 250 -262 233 -231 236 -235 236 -277 0 -34 -5 -46 -31 -67 -40 -34 -77
-33 -125 3 -21 15 -142 133 -268 261 -126 127 -241 236 -254 241 -20 8 -45 2
-116 -23 -87 -31 -97 -33 -231 -32 -125 0 -148 3 -213 26 -105 38 -176 83
-257 163 -114 114 -177 243 -194 400 -50 449 353 818 797 730z"/>
<path d="M1730 2599 c-167 -28 -326 -173 -370 -337 -6 -24 -11 -78 -11 -121 1
-441 560 -628 828 -276 54 71 84 152 90 245 10 142 -33 257 -133 358 -73 72
-156 116 -254 131 -73 12 -74 12 -150 0z m197 -225 c156 -75 191 -285 70 -412
-46 -48 -102 -74 -173 -80 -51 -4 -71 0 -115 20 -106 48 -158 127 -159 238 0
97 35 163 123 230 30 22 109 40 157 34 25 -3 69 -16 97 -30z"/>
<path d="M1000 977 c-14 -7 -33 -29 -43 -49 -16 -33 -16 -40 -4 -71 29 -68 20
-67 437 -67 417 0 408 -1 437 67 12 31 12 38 -4 71 -10 20 -29 42 -43 49 -36
18 -744 18 -780 0z"/>
<path d="M977 575 c-49 -49 -37 -127 23 -158 32 -16 78 -17 623 -15 l589 3 29
33 c40 44 40 93 0 133 l-29 29 -605 0 -604 0 -26 -25z"/>
<path d="M4443 3912 c-51 -40 -52 -114 -1 -157 66 -55 158 -12 158 75 0 81
-95 131 -157 82z"/>
</g>
</svg>
