<?xml version="1.0" standalone="no"?>
<!DOCTYPE svg PUBLIC "-//W3C//DTD SVG 20010904//EN"
 "http://www.w3.org/TR/2001/REC-SVG-20010904/DTD/svg10.dtd">
<svg version="1.0" xmlns="http://www.w3.org/2000/svg"
 width="225.000000pt" height="225.000000pt" viewBox="0 0 225.000000 225.000000"
 preserveAspectRatio="xMidYMid meet">

<g transform="translate(0.000000,225.000000) scale(0.100000,-0.100000)"
fill="#000000" stroke="none">
<path d="M83 2243 c-40 -8 -71 -50 -78 -106 -3 -29 -5 -438 -3 -909 l3 -858
32 -31 c29 -30 38 -33 112 -37 l81 -5 0 -29 c0 -37 24 -84 51 -99 11 -6 54
-13 94 -16 l73 -6 6 -42 c8 -49 37 -81 87 -95 46 -13 819 -13 854 0 20 7 26
16 23 33 l-3 22 -438 5 c-374 4 -439 7 -447 20 -6 9 -10 355 -10 887 0 779 2
873 16 887 14 14 72 16 490 16 l474 0 0 -66 c0 -73 18 -121 52 -143 13 -8 58
-17 101 -19 l77 -5 0 -211 c0 -152 3 -215 12 -224 16 -16 23 -15 42 4 14 13
16 49 16 234 0 120 -4 230 -10 244 -5 14 -51 67 -103 118 -105 104 -117 122
-117 170 0 78 -54 118 -156 118 l-61 0 -7 41 c-9 57 -32 87 -75 99 -35 10
-1139 13 -1188 3z m1181 -79 c9 -8 16 -26 16 -40 l0 -24 -475 0 c-500 0 -519
-2 -555 -45 -13 -16 -16 -130 -20 -849 l-5 -831 -61 -3 c-103 -5 -94 -96 -94
903 0 781 2 875 16 889 14 14 81 16 589 16 508 0 575 -2 589 -16z m217 -144
c12 -7 19 -21 19 -40 l0 -29 -487 -3 c-520 -3 -511 -2 -544 -52 -12 -17 -14
-160 -17 -850 l-2 -828 -59 4 c-100 7 -91 -87 -91 909 0 826 1 879 18 888 24
14 1136 15 1163 1z m141 -247 c21 -20 38 -41 38 -45 0 -14 -58 -8 -74 8 -16
15 -23 74 -9 74 4 0 24 -17 45 -37z" fill = "#ffffff"/>
<path d="M683 1704 c-3 -9 -2 -24 4 -33 15 -23 318 -29 348 -7 16 12 18 18 9
33 -10 16 -30 18 -183 21 -152 2 -172 1 -178 -14z" fill = "#ffffff"/>
<path d="M687 1413 c-14 -13 -7 -43 13 -53 12 -7 160 -9 436 -8 371 3 418 5
427 19 6 9 7 24 4 33 -6 14 -48 16 -440 16 -239 0 -437 -3 -440 -7z" fill = "#ffffff"/>
<path d="M699 1228 c-14 -5 -19 -15 -17 -30 l3 -23 440 0 440 0 0 25 0 25
-423 5 c-233 3 -432 2 -443 -2z" fill = "#ffffff"/>
<path d="M1631 1146 c-9 -11 -6 -34 14 -101 14 -48 25 -101 25 -119 -1 -47
-31 -103 -103 -188 -135 -161 -163 -211 -174 -310 -14 -136 44 -276 143 -348
83 -59 208 -85 337 -69 108 13 180 44 247 105 69 64 105 139 120 246 27 194
-49 359 -258 559 -94 90 -297 239 -326 239 -8 0 -19 -6 -25 -14z m192 -180
c169 -135 278 -263 328 -388 17 -41 22 -74 22 -143 0 -138 -41 -227 -137 -296
-61 -45 -65 -41 -59 56 5 76 3 89 -20 137 -35 70 -132 188 -156 188 -27 0
-114 -99 -148 -168 -23 -47 -28 -70 -28 -132 0 -41 4 -86 9 -99 l8 -23 -42 23
c-60 34 -98 84 -122 163 -27 89 -21 174 16 243 15 27 66 94 113 149 47 54 95
119 106 144 21 47 28 129 15 188 -4 17 -5 32 -2 32 3 0 46 -33 97 -74z m13
-568 c51 -61 77 -133 72 -199 -4 -51 -9 -65 -36 -92 -25 -25 -40 -32 -72 -32
-72 0 -129 86 -113 169 11 60 88 186 113 186 5 0 21 -15 36 -32z" fill = "#ffffff"/>
<path d="M690 1035 c-6 -8 -10 -22 -8 -32 3 -17 27 -18 423 -18 l420 0 3 24
c2 13 -2 28 -10 32 -7 5 -194 9 -414 9 -339 0 -403 -2 -414 -15z" fill = "#ffffff"/>
<path d="M687 853 c-13 -12 -7 -51 9 -57 24 -9 697 -7 712 3 8 4 12 19 10 32
l-3 24 -361 3 c-198 1 -363 -1 -367 -5z" fill = "#ffffff"/>
<path d="M687 664 c-14 -14 -7 -43 12 -54 12 -6 102 -10 223 -10 216 0 244 5
236 46 -3 18 -15 19 -234 22 -127 1 -233 -1 -237 -4z" fill = "#ffffff"/>
<path d="M710 481 c-18 -5 -25 -14 -25 -31 l0 -25 215 0 215 0 3 22 c3 17 -3
26 -23 33 -29 11 -346 12 -385 1z" fill = "#ffffff"/>
<path d="M690 285 c-6 -8 -10 -22 -8 -32 3 -17 21 -18 235 -21 226 -2 232 -2
238 18 15 46 -2 50 -235 50 -178 0 -220 -3 -230 -15z" fill = "#ffffff"/>
</g>
</svg>
