<?xml version="1.0" standalone="no"?>
<!DOCTYPE svg PUBLIC "-//W3C//DTD SVG 20010904//EN"
 "http://www.w3.org/TR/2001/REC-SVG-20010904/DTD/svg10.dtd">
<svg version="1.0" xmlns="http://www.w3.org/2000/svg"
 width="128.000000pt" height="128.000000pt" viewBox="0 0 128.000000 128.000000"
 preserveAspectRatio="xMidYMid meet">

<g transform="translate(0.000000,128.000000) scale(0.100000,-0.100000)"
fill="#ffffff" stroke="none">
<path d="M335 1094 c-154 -91 -288 -175 -297 -186 -56 -64 27 -158 103 -118
19 10 19 5 19 -256 l0 -267 -70 -73 c-78 -80 -87 -108 -45 -149 32 -33 67 -31
108 5 34 29 37 30 141 30 l106 0 0 -30 0 -30 360 0 360 0 0 390 c0 383 0 391
19 380 71 -37 149 40 111 110 -6 10 -33 32 -60 47 l-50 28 0 113 0 112 -80 0
-80 0 0 -60 c0 -33 -3 -60 -6 -60 -3 0 -73 41 -156 90 -86 51 -162 90 -177 90
-16 0 -138 -66 -306 -166z m603 -43 c150 -90 276 -170 279 -178 8 -19 -9 -47
-30 -51 -9 -2 -129 64 -268 147 -154 92 -262 151 -278 151 -16 0 -126 -60
-279 -151 -139 -82 -260 -149 -269 -147 -24 5 -40 35 -28 54 17 26 558 345
580 341 11 -2 143 -77 293 -166z m162 29 l0 -80 -37 23 c-36 23 -38 27 -41 81
l-3 56 41 0 40 0 0 -80z m-233 -127 l213 -126 0 -314 c0 -311 0 -314 -20 -303
-11 6 -20 20 -20 31 0 32 -26 74 -55 87 -16 7 -76 12 -152 12 l-127 0 97 99
c61 62 97 106 97 119 0 12 -13 36 -29 54 -29 33 -29 33 -51 13 l-21 -19 -96
97 -97 96 19 21 c20 22 20 22 -13 51 -18 16 -42 29 -54 29 -14 0 -63 -41 -140
-117 -132 -131 -140 -148 -88 -198 29 -28 30 -28 50 -10 20 18 21 18 46 -7
l26 -25 -117 -114 c-64 -63 -121 -115 -126 -117 -5 -2 -9 101 -9 256 l0 259
213 126 c116 70 218 127 226 127 8 0 110 -57 228 -127z m-281 -104 c8 -13
-215 -241 -231 -236 -32 11 -11 45 86 143 98 99 129 118 145 93z m94 -174 l95
-95 -78 -77 -77 -78 -97 97 -98 98 75 75 c41 41 77 75 80 75 3 0 48 -43 100
-95z m178 -111 c2 -13 -29 -51 -101 -122 -57 -56 -108 -102 -113 -102 -5 0
-16 5 -24 10 -12 8 8 32 100 125 63 63 119 114 125 112 5 -2 11 -12 13 -23z
m-358 -69 c14 -17 22 -7 -278 -317 -63 -65 -120 -118 -127 -118 -21 0 -39 29
-29 48 10 19 405 401 415 402 4 0 12 -7 19 -15z m70 -70 c22 -24 23 -26 6 -44
-10 -11 -15 -24 -12 -29 3 -5 -8 -15 -25 -22 -31 -13 -59 -55 -59 -89 0 -13
-12 -26 -29 -36 -18 -9 -35 -29 -42 -50 l-13 -35 -84 0 -84 0 55 61 c86 95
251 267 258 268 3 1 16 -10 29 -24z m410 -145 c11 -11 20 -29 20 -40 0 -19 -7
-20 -240 -20 -233 0 -240 1 -240 20 0 11 9 29 20 40 19 19 33 20 220 20 187 0
201 -1 220 -20z m80 -120 c13 -13 20 -33 20 -60 l0 -40 -320 0 -320 0 0 40 c0
27 7 47 20 60 19 19 33 20 300 20 267 0 281 -1 300 -20z"/>
<path d="M400 900 c-52 -33 -99 -61 -105 -63 -6 -3 -4 -11 5 -20 14 -14 23
-11 100 34 127 75 130 78 124 94 -9 23 -21 18 -124 -45z"/>
<path d="M769 944 c-11 -13 -10 -17 2 -25 20 -12 26 -11 32 5 9 23 -18 39 -34
20z"/>
<path d="M835 900 c-8 -13 3 -30 20 -30 14 0 27 24 18 34 -10 9 -31 7 -38 -4z"/>
<path d="M905 860 c-8 -13 3 -30 20 -30 14 0 27 24 18 34 -10 9 -31 7 -38 -4z"/>
<path d="M247 807 c-23 -17 -6 -41 22 -32 24 7 27 18 8 34 -10 8 -18 7 -30 -2z"/>
<path d="M1000 540 c0 -13 7 -20 20 -20 13 0 20 7 20 20 0 13 -7 20 -20 20
-13 0 -20 -7 -20 -20z"/>
<path d="M1000 460 c0 -13 7 -20 20 -20 13 0 20 7 20 20 0 13 -7 20 -20 20
-13 0 -20 -7 -20 -20z"/>
<path d="M1000 380 c0 -13 7 -20 20 -20 13 0 20 7 20 20 0 13 -7 20 -20 20
-13 0 -20 -7 -20 -20z"/>
<path d="M840 120 c0 -13 7 -20 20 -20 13 0 20 7 20 20 0 13 -7 20 -20 20 -13
0 -20 -7 -20 -20z"/>
<path d="M920 120 c0 -13 7 -20 20 -20 13 0 20 7 20 20 0 13 -7 20 -20 20 -13
0 -20 -7 -20 -20z"/>
<path d="M1000 120 c0 -13 7 -20 20 -20 13 0 20 7 20 20 0 13 -7 20 -20 20
-13 0 -20 -7 -20 -20z"/>
</g>
</svg>
