<?xml version="1.0" standalone="no"?>
<!DOCTYPE svg PUBLIC "-//W3C//DTD SVG 20010904//EN"
 "http://www.w3.org/TR/2001/REC-SVG-20010904/DTD/svg10.dtd">
<svg version="1.0" xmlns="http://www.w3.org/2000/svg"
 width="51.000000pt" height="51.000000pt" viewBox="0 0 512.000000 512.000000"
 preserveAspectRatio="xMidYMid meet">

<g transform="translate(0.000000,512.000000) scale(0.100000,-0.100000)"
fill="#fff" stroke="none">
<path d="M2365 4374 c-373 -83 -655 -370 -730 -743 -23 -112 -16 -313 14 -425
45 -169 161 -353 288 -462 60 -51 64 -56 43 -61 -46 -12 -227 -106 -305 -159
-355 -238 -621 -682 -745 -1244 -22 -101 -58 -346 -60 -410 -3 -79 0 -90 25
-115 l24 -25 1641 0 1641 0 24 25 c14 13 25 34 26 47 2 57 -4 123 -22 253 -97
674 -377 1193 -794 1475 -73 49 -220 126 -285 149 l-33 11 58 47 c128 106 249
299 297 473 20 72 23 109 23 245 0 137 -3 172 -23 239 -95 329 -336 571 -663
667 -100 29 -340 36 -444 13z"/>
<path d="M982 3755 c-174 -39 -343 -174 -420 -335 -51 -107 -66 -183 -60 -308
9 -165 85 -328 199 -424 l50 -42 -55 -23 c-363 -153 -601 -527 -680 -1074 -21
-137 -20 -155 4 -179 19 -19 33 -20 345 -20 l324 0 10 38 c5 20 15 57 21 82
80 318 253 681 429 900 85 106 219 237 326 317 55 42 101 76 103 78 1 1 -20
39 -48 84 -58 97 -102 206 -132 329 -18 71 -22 118 -22 252 -1 91 3 190 7 220
9 55 8 56 -20 69 -99 46 -269 62 -381 36z"/>
<path d="M3900 3763 c-37 -6 -90 -22 -133 -41 l-39 -16 9 -55 c4 -31 8 -130 8
-221 -1 -139 -5 -179 -24 -253 -30 -117 -78 -235 -135 -331 -25 -43 -46 -79
-46 -81 0 -2 37 -29 82 -61 156 -109 326 -290 451 -479 126 -191 263 -505 323
-740 8 -33 20 -77 25 -97 l10 -38 324 0 c403 0 376 -12 355 160 -69 555 -318
960 -682 1110 l-57 23 58 56 c125 121 191 275 191 448 0 110 -14 172 -62 273
-78 163 -248 298 -424 335 -65 14 -177 18 -234 8z"/>
</g>
</svg>
