<?xml version="1.0" standalone="no"?>
<!DOCTYPE svg PUBLIC "-//W3C//DTD SVG 20010904//EN"
 "http://www.w3.org/TR/2001/REC-SVG-20010904/DTD/svg10.dtd">
<svg version="1.0" xmlns="http://www.w3.org/2000/svg"
 width="40.000000pt" height="40.000000pt" viewBox="0 0 840.000000 859.000000"
 preserveAspectRatio="xMidYMid meet">
<metadata>
Created by potrace 1.16, written by Peter Selinger 2001-2019
</metadata>
<g transform="translate(0.000000,859.000000) scale(0.100000,-0.100000)"
fill="#ffffff" stroke="none">
<path d="M1850 8544 c-126 -33 -213 -89 -430 -279 -74 -64 -177 -152 -229
-194 -453 -364 -776 -895 -900 -1481 -55 -261 -75 -612 -52 -880 71 -804 434
-1664 1092 -2585 525 -736 1219 -1486 1849 -2000 1018 -829 2023 -1191 2970
-1069 527 68 1056 313 1420 659 47 45 141 130 210 190 168 146 224 200 275
265 217 280 151 579 -215 964 -105 111 -573 516 -747 647 -378 285 -689 384
-981 313 -89 -21 -216 -83 -295 -142 -118 -90 -391 -334 -500 -448 -186 -195
-297 -253 -498 -261 -95 -4 -130 -2 -196 15 -233 59 -477 202 -768 450 -138
118 -453 436 -617 622 -630 719 -940 1270 -941 1675 0 119 18 195 69 297 46
92 160 207 294 298 192 130 531 441 605 554 184 283 165 617 -59 1061 -77 152
-287 494 -457 745 -319 471 -611 660 -899 584z"/>
</g>
</svg>
