<svg id="s2.svg" xmlns="http://www.w3.org/2000/svg" width="460" height="492" viewBox="0 0 460 492">
  <defs>
    <style>
      .cls-1 {
        fill: #ffffff;
      }

      .cls-1, .cls-2 {
        fill-rule: evenodd;
      }

      .cls-2 {
        fill: #ffffff;
      }
    </style>
  </defs>
  <path class="cls-1" d="M1428,897l-0.39,26.85c0,17.174-13.06,31.146-29.1,31.146H1069.49c-16.04,0-29.09-13.969-29.09-31.146V539a7.746,7.746,0,0,1-.4-2.427V494.147c0-17.175,13.05-31.147,29.09-31.147h329.42c16.04,0,29.1,13.972,29.1,31.147L1428,680m-14.28-185.853c0-9.213-7-16.708-15.61-16.708H1069.49c-8.6,0-15.6,7.5-15.6,16.708v35.2h359.83v-35.2ZM1428,680l-13.88-5.219V543.789H1053.89V923.85c0,9.213,7,16.708,15.6,16.708h329.02c8.61,0,15.61-7.5,15.61-16.708h-0.01V904.606c-2.28,1.1,12.36-6.732,13.89-7.606m25.65-90.331a7.326,7.326,0,0,1-4.33-9.1,164.449,164.449,0,0,0,6.51-53.452,3.91,3.91,0,0,0-2.31-3.381l-52.93-22.291a3.4,3.4,0,0,0-2.67,0l-52.93,22.291a3.91,3.91,0,0,0-2.31,3.381,163.654,163.654,0,0,0,7.06,55.208c8.97,28.185,25.2,47.29,48.26,56.784a3.251,3.251,0,0,0,2.51,0,77.641,77.641,0,0,0,36.02-30.312,6.463,6.463,0,0,1,9.38-1.819,7.555,7.555,0,0,1,1.7,10.051c-10.66,16.433-24.87,28.4-42.25,35.556a15.909,15.909,0,0,1-12.21,0c-26.58-10.947-46-33.633-56.18-65.6-9.11-28.648-8.05-55.662-7.75-60.786a18.378,18.378,0,0,1,10.84-15.9l52.92-22.287a16.027,16.027,0,0,1,12.55,0l52.93,22.287a18.341,18.341,0,0,1,10.82,15.9,180.6,180.6,0,0,1-7.14,58.832A6.654,6.654,0,0,1,1453.65,806.669Zm-350.72-114.5h12.59a7.236,7.236,0,0,1,0,14.438h-12.59A7.235,7.235,0,0,1,1102.93,692.165ZM1274.74,706.6h-128.2a7.236,7.236,0,0,1,0-14.438h128.2A7.236,7.236,0,0,1,1274.74,706.6Zm-171.81,15.01h171.81a7.236,7.236,0,0,1,0,14.438H1102.93A7.235,7.235,0,0,1,1102.93,721.613Zm0.4,38.991h12.59a7.237,7.237,0,0,1,0,14.439h-12.59A7.236,7.236,0,0,1,1103.33,760.6Zm171.41,14.439h-128.2a7.237,7.237,0,0,1,0-14.439h128.2A7.237,7.237,0,0,1,1274.74,775.043Zm-171.41,15.009h171.81a7.237,7.237,0,0,1,0,14.439H1103.33A7.236,7.236,0,0,1,1103.33,790.052Zm0,29.448h84.52a7.236,7.236,0,0,1,0,14.439h-84.52A7.236,7.236,0,0,1,1103.33,819.5Zm115.55,14.439a7.236,7.236,0,0,1,0-14.439h56.26a7.237,7.237,0,0,1,0,14.439h-56.26Z" transform="translate(-1040 -463)"/>
  <path id="Shape_2_copy" data-name="Shape 2 copy" class="cls-2" d="M1414,675l71.72,29.935c7.96,3.351,13.45,11.41,13.99,20.533,0.44,7.431,1.97,46.606-11.32,87.968-6.68,20.8-16.07,38.946-27.91,53.93a131.7,131.7,0,0,1-32.87,29.755L1414,905m0,0c-2.29,1.1-4.5,1.755-6.87,2.732a20.572,20.572,0,0,1-15.75,0,130.733,130.733,0,0,1-53.34-40.366c-11.85-14.984-21.24-33.13-27.92-53.926-13.3-41.366-11.76-80.541-11.32-87.972,0.54-9.123,6.04-17.182,14-20.533l78.35-33a20.714,20.714,0,0,1,16.21,0L1414,675m72.25,51.384a9.243,9.243,0,0,0-5.47-8.01l-78.36-33a8.1,8.1,0,0,0-6.33,0l-78.36,33a9.266,9.266,0,0,0-5.47,8.01c-0.41,6.954-1.84,43.59,10.61,82.36,13.59,42.286,38.27,71.058,73.36,85.511a7.889,7.889,0,0,0,6.05,0c35.09-14.453,59.77-43.225,73.36-85.511C1488.1,769.978,1486.66,733.338,1486.25,726.384Zm-77.26,97.88a17.025,17.025,0,0,1-24.27,1l-17.64-16a19.612,19.612,0,0,1-6.32-13.413,19.939,19.939,0,0,1,4.61-14.187,17.2,17.2,0,0,1,25.37-1.4l4.12,3.978,21.58-24.121a17.124,17.124,0,0,1,24.76-1.232l1.07,0.984a20.2,20.2,0,0,1,.87,28.235Zm24.44-53.486-1.06-.984a4.285,4.285,0,0,0-6.19.308l-23.7,26.491a9.792,9.792,0,0,1-14.36.571l-6.41-6.172a4.3,4.3,0,0,0-3-1.23,4.368,4.368,0,0,0-3.34,1.582,5,5,0,0,0-1.15,3.543,4.876,4.876,0,0,0,1.58,3.352l17.64,16.008a4.247,4.247,0,0,0,6.06-.251l34.15-36.158A5.049,5.049,0,0,0,1433.43,770.778Zm-72.64-113.7H1106.41c-8.49,0-15.39-7.393-15.39-16.478V595.351c0-9.084,6.9-16.478,15.39-16.478h37.96a7.236,7.236,0,0,1,0,14.438h-37.96a1.976,1.976,0,0,0-1.9,2.04V640.6a1.973,1.973,0,0,0,1.9,2.037h254.38a1.981,1.981,0,0,0,1.91-2.037V595.351a1.984,1.984,0,0,0-1.91-2.04H1176.07a7.235,7.235,0,0,1,0-14.438h184.72c8.49,0,15.4,7.394,15.4,16.478V640.6C1376.19,649.687,1369.29,657.08,1360.79,657.08ZM1175.96,904.6c4.01-10.655,9-23.918,20.3-30,14.62-7.872,21.24,5.541,24.41,11.988,1.22,2.457,2.72,5.516,3.92,6.448,0.74,0.586,1.12.875,6.07-2.672,4.55-3.254,10.78-7.713,18.57-4.918,5.26,1.886,8.61,5.286,11.3,8.018,3.85,3.9,4.89,4.955,10.35,2.728,4.24-1.737,8.27-5.118,12.17-8.383a6.454,6.454,0,0,1,9.47,1.232,7.578,7.578,0,0,1-1.15,10.137c-4.47,3.746-9.53,7.992-15.69,10.5-13.37,5.467-20.02-1.274-24.42-5.733-2.09-2.116-3.89-3.938-6.32-4.813-1.41-.5-3.6.955-6.78,3.231-4.78,3.426-12.79,9.164-21.53,2.33-3.71-2.9-5.93-7.4-7.88-11.37-3.62-7.341-3.84-7.221-6.43-5.83-6.76,3.636-10.52,13.656-13.84,22.493-0.5,1.319-.98,2.6-1.46,3.829a6.758,6.758,0,0,1-6.23,4.444,6.334,6.334,0,0,1-2.59-.56,7.415,7.415,0,0,1-3.63-9.445C1175.03,907.078,1175.49,905.854,1175.96,904.6Z" transform="translate(-1040 -463)"/>
</svg>
