<svg xmlns="http://www.w3.org/2000/svg" width="512" height="512" viewBox="0 0 512 512">
  <defs>
    <style>
      
    </style>
  </defs>
  <path id="Sert1.svg" class="cls-1" d="M762.277,839.936h99.61a7.5,7.5,0,0,1,0,15h-99.61A7.5,7.5,0,0,1,762.277,839.936Zm167.879,15H910.449a7.5,7.5,0,0,1,0-15h19.707A7.5,7.5,0,0,1,930.156,854.933ZM762.277,873.15H930.156a7.5,7.5,0,0,1,0,15H762.277A7.5,7.5,0,0,1,762.277,873.15Zm0,33.214h25.688a7.5,7.5,0,0,1,0,15H762.277A7.5,7.5,0,0,1,762.277,906.364Zm74.254,15a7.5,7.5,0,0,1,0-15H852.77a7.5,7.5,0,0,1,0,15H836.531Zm176.229,7.8a48.51,48.51,0,1,1,48.49-48.512A48.558,48.558,0,0,1,1012.76,929.16Zm0-82.022a33.513,33.513,0,1,0,33.5,33.51A33.546,33.546,0,0,0,1012.76,847.138ZM781.93,958.1h252.18a27.157,27.157,0,0,1,0,54.314H781.93A27.157,27.157,0,0,1,781.93,958.1Zm0,39.314h252.18a12.159,12.159,0,0,0,0-24.317H781.93A12.159,12.159,0,0,0,781.93,997.41Zm0,29.47h252.18a27.155,27.155,0,0,1,0,54.31H781.93A27.155,27.155,0,0,1,781.93,1026.88Zm0,39.31h252.18a12.155,12.155,0,0,0,0-24.31H781.93A12.155,12.155,0,1,0,781.93,1066.19Zm0,98.26H958.824a27.155,27.155,0,0,1,0,54.31H781.93A27.155,27.155,0,0,1,781.93,1164.45Zm0,39.31H958.824a12.155,12.155,0,0,0,0-24.31H781.93A12.155,12.155,0,1,0,781.93,1203.76Zm0-108.1h252.18a27.155,27.155,0,0,1,0,54.31H781.93A27.155,27.155,0,0,1,781.93,1095.66Zm0,39.32h252.18a12.16,12.16,0,0,0,0-24.32H781.93A12.16,12.16,0,0,0,781.93,1134.98Zm410.61,116.9h-0.4l-4.55,20.2a31.626,31.626,0,0,1-31.03,24.82L728.9,1297a24.938,24.938,0,0,1-24.9-24.91V924.769a7.5,7.5,0,1,1,14.992,0V1272.09a9.924,9.924,0,0,0,9.91,9.91H1054.52a32.2,32.2,0,0,1-4.06-9.92l-4.55-20.2h-0.39a23.5,23.5,0,0,1-23.47-23.47V1209.3a23.5,23.5,0,0,1,23.47-23.47h28.32v-25.02a15.687,15.687,0,0,1,9.37-14.34l-6.59-30.22a7.5,7.5,0,1,1,14.65-3.2l6.99,32.09h41.53l11.39-52.23a32.911,32.911,0,1,0-64.66-12.16,7.5,7.5,0,1,1-14.81-2.34,47.877,47.877,0,0,1,25.33-35.09V809.91a9.926,9.926,0,0,0-9.91-9.913H728.9a9.924,9.924,0,0,0-9.91,9.913v80.449a7.5,7.5,0,1,1-14.992,0V809.91A24.936,24.936,0,0,1,728.9,785H1087.13a24.934,24.934,0,0,1,24.9,24.91V1038.5a47.9,47.9,0,0,1,53.8,57.61l-10.98,50.36a15.694,15.694,0,0,1,9.36,14.34v25.02h28.33A23.5,23.5,0,0,1,1216,1209.3v19.11A23.5,23.5,0,0,1,1192.54,1251.88Zm-127.45,16.9a16.712,16.712,0,0,0,16.4,13.12h75.07a16.731,16.731,0,0,0,16.41-13.12l3.8-16.9H1061.28Zm84.13-107.97a0.67,0.67,0,0,0-.67-0.67H1089.5a0.67,0.67,0,0,0-.67.67v25.02h60.39v-25.02Zm51.79,48.49a8.48,8.48,0,0,0-8.47-8.47H1045.52a8.48,8.48,0,0,0-8.47,8.47v19.11a8.48,8.48,0,0,0,8.47,8.47h147.02a8.48,8.48,0,0,0,8.47-8.47V1209.3Z" transform="translate(-704 -785)" fill = "#ffffff"/>
</svg>

